<svg width="120" height="120" viewBox="0 0 120 120" fill="none" xmlns="http://www.w3.org/2000/svg">
  <!-- Background circle with professional gradient -->
  <circle cx="60" cy="60" r="60" fill="url(#gradient)" />
  
  <!-- Professional AI head -->
  <rect x="30" y="35" width="60" height="50" rx="8" fill="#ffffff" stroke="#3b82f6" stroke-width="2"/>
  
  <!-- AI circuit pattern on forehead -->
  <rect x="35" y="40" width="50" height="2" rx="1" fill="#3b82f6" opacity="0.6"/>
  <rect x="35" y="44" width="40" height="1" rx="0.5" fill="#3b82f6" opacity="0.4"/>
  <rect x="35" y="47" width="45" height="1" rx="0.5" fill="#3b82f6" opacity="0.4"/>
  
  <!-- Professional AI eyes -->
  <rect x="40" y="52" width="6" height="8" rx="3" fill="#3b82f6"/>
  <rect x="74" y="52" width="6" height="8" rx="3" fill="#3b82f6"/>
  
  <!-- Eye highlights for depth -->
  <rect x="41" y="53" width="2" height="2" rx="1" fill="#ffffff"/>
  <rect x="75" y="53" width="2" height="2" rx="1" fill="#ffffff"/>
  
  <!-- Professional mouth/communication indicator -->
  <rect x="50" y="65" width="20" height="3" rx="1.5" fill="#3b82f6"/>
  
  <!-- Data processing indicators -->
  <circle cx="45" cy="75" r="2" fill="#3b82f6" opacity="0.8">
    <animate attributeName="opacity" values="0.8;0.3;0.8" dur="2s" repeatCount="indefinite"/>
  </circle>
  <circle cx="55" cy="75" r="2" fill="#3b82f6" opacity="0.6">
    <animate attributeName="opacity" values="0.6;0.2;0.6" dur="2s" repeatCount="indefinite" begin="0.5s"/>
  </circle>
  <circle cx="65" cy="75" r="2" fill="#3b82f6" opacity="0.7">
    <animate attributeName="opacity" values="0.7;0.25;0.7" dur="2s" repeatCount="indefinite" begin="1s"/>
  </circle>
  
  <!-- Professional antenna/communication -->
  <line x1="60" y1="35" x2="60" y2="25" stroke="#3b82f6" stroke-width="2"/>
  <circle cx="60" cy="23" r="2" fill="#3b82f6"/>
  
  <!-- Side panels with professional indicators -->
  <rect x="25" y="40" width="6" height="40" rx="3" fill="#3b82f6" opacity="0.3"/>
  <rect x="89" y="40" width="6" height="40" rx="3" fill="#3b82f6" opacity="0.3"/>
  
  <!-- Status indicators on side panels -->
  <circle cx="28" cy="50" r="1" fill="#ffffff" opacity="0.8"/>
  <circle cx="28" cy="60" r="1" fill="#ffffff" opacity="0.6"/>
  <circle cx="28" cy="70" r="1" fill="#ffffff" opacity="0.4"/>
  
  <circle cx="92" cy="50" r="1" fill="#ffffff" opacity="0.8"/>
  <circle cx="92" cy="60" r="1" fill="#ffffff" opacity="0.6"/>
  <circle cx="92" cy="70" r="1" fill="#ffffff" opacity="0.4"/>
  
  <!-- Professional gradient definition -->
  <defs>
    <linearGradient id="gradient" x1="0%" y1="0%" x2="100%" y2="100%">
      <stop offset="0%" style="stop-color:#1e40af;stop-opacity:1" />
      <stop offset="50%" style="stop-color:#3b82f6;stop-opacity:1" />
      <stop offset="100%" style="stop-color:#6366f1;stop-opacity:1" />
    </linearGradient>
  </defs>
</svg>
